HIERARCHY
ROOT Hips
{
  OFFSET 177.329 104.345 67.7534
  CHANNELS 6 Xposition Yposition Zposition Zrotation Xrotation Yrotation
  JOINT RightUpLeg
  {
    OFFSET -8.9458 -8.66707 0.101652
    CHANNELS 3 Zrotation Xrotation Yrotation
    JOINT RightLeg
    {
      OFFSET 0 -44.4227 1.3727
      CHANNELS 3 Zrotation Xrotation Yrotation
      JOINT RightFoot
      {
        OFFSET 0.253549 -42.0924 -1.46059
        CHANNELS 3 Zrotation Xrotation Yrotation
        JOINT RightToes
        {
          OFFSET 0.04 -4.41509 8.4991
          CHANNELS 3 Zrotation Xrotation Yrotation
          End Site
          {
            OFFSET -0.08 -0.137448 9.77979
          }
        }
      }
    }
  }
  JOINT Spine
  {
    OFFSET 0 11.8905 0
    CHANNELS 3 Zrotation Xrotation Yrotation
    JOINT Spine1
    {
      OFFSET 0 25.6574 0.127663
      CHANNELS 3 Zrotation Xrotation Yrotation
      JOINT HEad
      {
        OFFSET 0 8.73416 0.011341
        CHANNELS 3 Zrotation Xrotation Yrotation
        End Site
        {
          OFFSET -0.29 12.7742 2.51395
        }
      }
      JOINT LeftShoulder1
      {
        OFFSET 8.99 -0.362252 -0.22
        CHANNELS 3 Zrotation Xrotation Yrotation
        JOINT LeftArm
        {
          OFFSET 10.2827 -0.00338 0.322123
          CHANNELS 3 Zrotation Xrotation Yrotation
          JOINT LeftForeArm
          {
            OFFSET 32.7669 0.099144 -1.42434
            CHANNELS 3 Zrotation Xrotation Yrotation
            JOINT LeftHand
            {
              OFFSET 27.5643 0.085362 1.02216
              CHANNELS 3 Zrotation Xrotation Yrotation
              End Site
              {
                OFFSET 16.7443 -0.6 1.50291
              }
            }
          }
        }
      }
      JOINT RightShoulder
      {
        OFFSET -8.99 -0.362252 -0.22
        CHANNELS 3 Zrotation Xrotation Yrotation
        JOINT RightArm
        {
          OFFSET -10.2827 -0.00338 0.322123
          CHANNELS 3 Zrotation Xrotation Yrotation
          JOINT RightForeArm
          {
            OFFSET -32.8971 0.099144 -1.42434
            CHANNELS 3 Zrotation Xrotation Yrotation
            JOINT RightHand
            {
              OFFSET -27.4921 0.085362 1.02216
              CHANNELS 3 Zrotation Xrotation Yrotation
              End Site
              {
                OFFSET -16.6312 -0.6 1.50291
              }
            }
          }
        }
      }
    }
  }
  JOINT LeftUpLeg
  {
    OFFSET 8.9458 -8.66707 0.101652
    CHANNELS 3 Zrotation Xrotation Yrotation
    JOINT LeftLeg
    {
      OFFSET 0 -44.4227 1.3727
      CHANNELS 3 Zrotation Xrotation Yrotation
      JOINT LeftFoot
      {
        OFFSET -0.253549 -42.0924 -1.46059
        CHANNELS 3 Zrotation Xrotation Yrotation
        JOINT LeftToes
        {
          OFFSET -0.04 -4.41509 8.4991
          CHANNELS 3 Zrotation Xrotation Yrotation
          End Site
          {
            OFFSET 0.08 -0.047448 9.77979
          }
        }
      }
    }
  }
}
MOTION
Frames:	16
Frame Time:	0.0166667
0	103.784	0	0.650811	-1.77235	161.307	2.05737	-2.56709	0.636954	0.910289	9.85107	-4.4539	2.88365	-9.62725	-4.34772	0.0462048	0.000533964	0.662642	-0.0371836	-3.89365	-0.940589	-0.139094	-7.78339	-1.89053	2.86203	7.86456	21.3891	-3.98E-16	4.77E-15	6.36E-15	1.21408	-14.3574	-9.3716	-1.0696	7.99628	-2.45276	3.57667	10.8176	5.8063	-3.98E-16	4.77E-15	6.36E-15	0.152149	-13.92	-0.133854	-1.37754	15.6378	-2.48857	0.558122	12.8087	-1.19393	-2.92453	-0.200654	3.79328	1.85124	9.09873	-2.50937	-6.745	-17.1096	-12.5255	1.49E-14	3.10E-14	6.36E-15
-0.0028	103.784	0.001	0.650757	-1.76497	161.292	2.04849	-2.55536	0.621518	0.914737	9.84666	-4.42405	2.88582	-9.60635	-4.04364	0.0462048	0.000533964	0.662642	-0.0379823	-3.89204	-0.93721	-0.140438	-7.78015	-1.88379	2.82763	7.85014	21.4272	7.95E-16	1.59E-15	-3.18E-15	1.26038	-14.3403	-9.35584	-1.03714	7.9809	-2.45242	3.59292	10.8414	5.8184	7.95E-16	1.59E-15	-3.18E-15	0.152721	-13.9255	-0.150227	-1.39232	15.6426	-2.48651	0.565965	12.8562	-1.17329	-2.9346	-0.194202	3.74743	1.84375	9.09906	-2.46741	-6.73607	-17.1078	-12.5269	1.47E-14	3.22E-14	0.00E+00
-0.0196	103.785	0.004	0.650821	-1.75846	161.28	2.03813	-2.54463	0.595554	0.916654	9.84224	-4.38867	2.88053	-9.62993	-4.35642	0.0462048	0.000533964	0.662642	-0.0371604	-3.89134	-0.932419	-0.139772	-7.77865	-1.87596	2.79045	7.83874	21.4728	-1.19E-15	-3.18E-15	-6.36E-15	1.29027	-14.326	-9.33587	-1.00841	8.0198	-2.46432	3.62304	10.8523	5.8481	-1.19E-15	-3.18E-15	-6.36E-15	0.136494	-13.9445	-0.181682	-1.39487	15.5911	-2.48704	0.577322	12.8854	-1.17109	-2.92974	-0.193209	3.72043	1.83333	9.09675	-2.45077	-6.67905	-17.1838	-12.0403	1.31E-14	3.10E-14	0.00E+00
-0.0129	103.786	0.008	0.64906	-1.75795	161.269	2.03548	-2.54229	0.586036	0.92013	9.83936	-4.37506	2.87795	-9.63592	-4.46566	0.0462048	0.000533964	0.662642	-0.0357934	-3.89076	-0.927763	-0.137915	-7.77801	-1.86473	2.75592	7.83286	21.515	0.00E+00	1.59E-15	0.00E+00	1.30803	-14.2864	-9.31326	-0.984231	8.09453	-2.49747	3.64406	10.8456	5.86711	0.00E+00	1.59E-15	0.00E+00	0.123493	-13.9439	-0.195221	-1.3826	15.5382	-2.52086	0.637743	12.9083	-1.20991	-2.93964	-0.189526	3.71649	1.82846	9.09334	-2.45652	-6.70424	-17.1162	-12.4132	1.37E-14	3.34E-14	6.36E-15
-0.0179	103.786	0.014	0.647685	-1.75658	161.267	2.0264	-2.54037	0.578389	0.921647	9.83782	-4.36475	2.88024	-9.63844	-4.39571	0.0462048	0.000533964	0.662642	-0.0341453	-3.89016	-0.924924	-0.136325	-7.77785	-1.85898	2.725	7.83333	21.5586	-7.95E-16	-1.59E-15	0.00E+00	1.32552	-14.2049	-9.28061	-0.973368	8.15879	-2.54661	3.66936	10.8618	5.85617	-7.95E-16	-1.59E-15	0.00E+00	0.110807	-13.9198	-0.191663	-1.36501	15.5406	-2.56612	0.745392	12.9362	-1.28836	-2.9411	-0.186975	3.71925	1.82286	9.09062	-2.46708	-6.74108	-17.0489	-12.7958	1.57E-14	3.26E-14	0.00E+00
-0.0327	103.787	0.019	0.645997	-1.75506	161.271	2.0192	-2.53988	0.572186	0.923009	9.83655	-4.36246	2.88373	-9.63904	-4.30012	0.0462048	0.000533964	0.662642	-0.0323428	-3.88954	-0.923523	-0.134885	-7.77788	-1.85598	2.70127	7.83537	21.5951	-1.19E-15	1.59E-15	0.00E+00	1.32695	-14.0959	-9.26754	-0.963771	8.15148	-2.57721	3.73499	10.8736	5.82145	-1.19E-15	1.59E-15	0.00E+00	0.0992212	-13.9128	-0.19809	-1.35371	15.5906	-2.58812	0.851656	12.9847	-1.37166	-2.94395	-0.190505	3.72309	1.8238	9.08953	-2.47853	-6.69658	-17.1119	-12.3842	1.57E-14	3.18E-14	0.00E+00
-0.0473	103.788	0.024	0.642824	-1.75496	161.285	2.00861	-2.54322	0.578546	0.926655	9.83562	-4.37775	2.88702	-9.63679	-4.31549	0.0462048	0.000533964	0.662642	-0.030481	-3.88893	-0.922721	-0.133705	-7.77775	-1.85465	2.69548	7.83615	21.612	-3.98E-16	0.00E+00	3.18E-15	1.30241	-14.0201	-9.27649	-0.954728	8.05735	-2.58148	3.83293	10.8541	5.7881	-3.98E-16	0.00E+00	3.18E-15	0.0708639	-13.8896	-0.234248	-1.32306	15.6231	-2.57945	0.919908	13.0236	-1.42952	-2.95693	-0.20041	3.72348	1.82303	9.08939	-2.47449	-6.6857	-17.1117	-12.348	1.53E-14	3.02E-14	0.00E+00
-0.0721	103.788	0.027	0.640114	-1.75811	161.307	1.99166	-2.55187	0.592681	0.932616	9.83528	-4.40827	2.89098	-9.63432	-4.29238	0.0462048	0.000533964	0.662642	-0.0287022	-3.88832	-0.922367	-0.132352	-7.77716	-1.85394	2.68883	7.83784	21.598	3.98E-16	1.59E-15	3.18E-15	1.23375	-14.0637	-9.28358	-0.949197	7.93883	-2.58603	3.91801	10.8222	5.77812	3.98E-16	1.59E-15	3.18E-15	0.0129333	-13.8265	-0.290551	-1.27099	15.5912	-2.56533	0.986772	13.0396	-1.45041	-2.96393	-0.209961	3.70452	1.81774	9.0892	-2.46869	-6.6584	-17.1395	-12.1559	1.47E-14	3.38E-14	0.00E+00
-0.0859	103.789	0.031	0.636427	-1.76592	161.329	1.98562	-2.56558	0.596392	0.936464	9.83611	-4.4255	2.89715	-9.63056	-4.37959	0.0462048	0.000533964	0.662642	-0.0271484	-3.88772	-0.922311	-0.124215	-7.77577	-1.85368	2.6808	7.8398	21.5763	3.98E-16	1.59E-15	-3.18E-15	1.14247	-14.1958	-9.26446	-0.955503	7.85295	-2.60016	3.89496	10.7972	5.77713	3.98E-16	1.59E-15	-3.18E-15	-0.0511931	-13.7716	-0.340712	-1.22528	15.5458	-2.55977	1.09792	13.0459	-1.47272	-2.9735	-0.224836	3.68715	1.81331	9.08797	-2.47309	-6.66801	-17.1049	-12.3643	8.75E-15	3.10E-14	6.36E-15
-0.1041	103.789	0.036	0.633003	-1.77363	161.349	1.97633	-2.57814	0.590807	0.938763	9.83983	-4.42952	2.90258	-9.62888	-4.36757	0.0462048	0.000533964	0.662642	-0.0259618	-3.88715	-0.922403	-0.115704	-7.77326	-1.85368	2.68023	7.8413	21.5625	-1.77E-31	1.59E-15	6.36E-15	1.06067	-14.3356	-9.24021	-0.981911	7.84788	-2.59611	3.72577	10.8167	5.80017	-1.77E-31	1.59E-15	6.36E-15	-0.0584147	-13.7835	-0.348959	-1.23167	15.5921	-2.58752	1.25516	13.0605	-1.5257	-2.97419	-0.236967	3.69471	1.80058	9.08454	-2.48934	-6.67723	-17.0769	-12.5436	1.17E-14	3.30E-14	0.00E+00
-0.1238	103.79	0.045	0.632147	-1.77299	161.374	1.95349	-2.58446	0.580771	0.942074	9.8453	-4.43328	2.91246	-9.62909	-4.27828	0.0462048	0.000533964	0.662642	-0.0252566	-3.8866	-0.922493	-0.110605	-7.76778	-1.85374	2.6803	7.84991	21.5502	3.98E-16	0.00E+00	0.00E+00	1.00375	-14.4008	-9.22746	-1.02967	7.90582	-2.56202	3.4679	10.8183	5.8385	3.98E-16	0.00E+00	0.00E+00	-0.0614966	-13.8281	-0.340029	-1.24522	15.7021	-2.62038	1.3982	13.088	-1.61712	-2.97579	-0.246721	3.72606	1.79523	9.08154	-2.53201	-6.66437	-17.073	-12.5503	1.17E-14	3.22E-14	0.00E+00
-0.1455	103.79	0.052	0.631674	-1.77023	161.401	1.9306	-2.58883	0.565103	0.947634	9.85029	-4.43811	2.91865	-9.63868	-4.37625	0.0462048	0.000533964	0.662642	-0.0248991	-3.8861	-0.922429	-0.108893	-7.75982	-1.8537	2.70446	7.86132	21.5174	-1.77E-31	-3.18E-15	-3.18E-15	0.97542	-14.4059	-9.2219	-1.06998	8.00994	-2.53965	3.23173	10.8171	5.89006	-1.77E-31	-3.18E-15	-3.18E-15	-0.0688272	-13.8667	-0.354717	-1.25155	15.7697	-2.61627	1.47519	13.1127	-1.70469	-2.98328	-0.252859	3.76814	1.78824	9.07873	-2.57906	-6.65731	-17.0586	-12.6376	9.74E-15	3.22E-14	-3.18E-15
-0.1784	103.791	0.057	0.631098	-1.76949	161.432	1.90778	-2.59438	0.547259	0.951333	9.85201	-4.44946	2.92809	-9.62266	-4.12359	0.0462048	0.000533964	0.662642	-0.0246594	-3.88564	-0.922063	-0.108788	-7.75236	-1.85337	2.74133	7.87191	21.4637	-3.98E-16	0.00E+00	0.00E+00	0.956028	-14.359	-9.22167	-1.08646	8.10728	-2.53023	3.14625	10.8147	5.91936	-3.98E-16	0.00E+00	0.00E+00	-0.0945903	-13.8605	-0.388912	-1.23951	15.7319	-2.59438	1.48943	13.1027	-1.72862	-2.99433	-0.261048	3.80781	1.78795	9.07567	-2.6194	-6.61005	-17.1049	-12.3478	1.53E-14	3.06E-14	-6.36E-15
-0.2024	103.792	0.061	0.627737	-1.78054	161.458	1.89038	-2.61152	0.54478	0.955244	9.85323	-4.46991	2.93472	-9.61713	-4.03384	0.0462048	0.000533964	0.662642	-0.0243073	-3.88523	-0.921244	-0.109342	-7.74934	-1.8526	2.76608	7.87235	21.4058	3.98E-16	0.00E+00	3.18E-15	0.944094	-14.3043	-9.22527	-1.10141	8.21338	-2.53781	3.1726	10.8119	5.92723	3.98E-16	0.00E+00	3.18E-15	-0.125532	-13.818	-0.39369	-1.21622	15.6826	-2.60171	1.5077	13.0632	-1.72887	-3.0112	-0.281662	3.82707	1.78767	9.07195	-2.64094	-6.60004	-17.0923	-12.4159	1.77E-14	2.98E-14	6.36E-15
-0.2252	103.792	0.065	0.622443	-1.80317	161.478	1.8761	-2.64082	0.555556	0.961279	9.85398	-4.5009	2.94074	-9.6268	-4.17388	0.0462048	0.000533964	0.662642	-0.023613	-3.88489	-0.919821	-0.109494	-7.75248	-1.85091	2.78864	7.87084	21.3397	0.00E+00	0.00E+00	-3.18E-15	0.955759	-14.2533	-9.23141	-1.12581	8.32253	-2.55609	3.17158	10.8097	5.91567	0.00E+00	0.00E+00	-3.18E-15	-0.183728	-13.7498	-0.397268	-1.16995	15.6761	-2.61718	1.55812	13.0471	-1.73823	-3.00962	-0.311057	3.83043	1.77261	9.06854	-2.64484	-6.59828	-17.0781	-12.514	1.11E-14	3.18E-14	3.18E-15
-0.235	103.793	0.07	0.619446	-1.83423	161.489	1.86679	-2.67682	0.558974	0.967377	9.855	-4.52049	2.94722	-9.64136	-4.37018	0.0462048	0.000533964	0.662642	-0.0223464	-3.88462	-0.917644	-0.107427	-7.75861	-1.8434	2.80555	7.87266	21.272	0.00E+00	0.00E+00	-3.18E-15	0.98089	-14.2392	-9.23802	-1.15016	8.43472	-2.57633	3.11966	10.8086	5.8995	0.00E+00	0.00E+00	-3.18E-15	-0.25681	-13.6823	-0.410396	-1.11855	15.6587	-2.63626	1.60635	13.0732	-1.74908	-3.0068	-0.34968	3.83555	1.75555	9.06601	-2.64592	-6.63454	-17.0102	-12.9482	1.39E-14	3.22E-14	3.18E-15
